<?xml version="1.0" encoding="UTF-8" standalone="no"?><!DOCTYPE svg PUBLIC "-//W3C//DTD SVG 1.1//EN" "http://www.w3.org/Graphics/SVG/1.1/DTD/svg11.dtd"><svg width="100%" height="100%" viewBox="0 0 750 325" version="1.1" xmlns="http://www.w3.org/2000/svg" xmlns:xlink="http://www.w3.org/1999/xlink" xml:space="preserve" xmlns:serif="http://www.serif.com/" style="fill-rule:evenodd;clip-rule:evenodd;stroke-linejoin:round;stroke-miterlimit:1.41421;"><g transform="matrix(0.788985,0,0,1,-16.2233,-2.69651)"><text x="29px" y="294px" style="font-family:'ArialRoundedMTBold', 'Arial Rounded MT Bold', sans-serif;font-size:359.877px;fill:#272727;">W</text><text x="312.579px" y="290px" style="font-family:'ArialRoundedMTBold', 'Arial Rounded MT Bold', sans-serif;font-size:359.877px;fill:#272727;">T</text><text x="517.708px" y="294px" style="font-family:'ArialRoundedMTBold', 'Arial Rounded MT Bold', sans-serif;font-size:359.877px;fill:#e82f2f;">F</text></g><path d="M735,53.718c0,-11.158 -9.06,-20.218 -20.218,-20.218l-121.845,0c-11.159,0 -20.219,9.06 -20.219,20.218c0,11.159 9.06,20.219 20.219,20.219l121.845,0c11.158,0 20.218,-9.06 20.218,-20.219Z" style="fill:#ff5252;"/><path d="M735,105.152c0,-11.159 -9.06,-20.219 -20.218,-20.219l-160.564,0c-11.158,0 -20.218,9.06 -20.218,20.219c0,11.159 9.06,20.218 20.218,20.218l160.564,0c11.158,0 20.218,-9.059 20.218,-20.218Z" style="fill:#ffcdd2;"/><path d="M735,159.5c0,-11.159 -9.06,-20.218 -20.218,-20.218l-121.845,0c-11.159,0 -20.219,9.059 -20.219,20.218c0,11.159 9.06,20.218 20.219,20.218l121.845,0c11.158,0 20.218,-9.059 20.218,-20.218Z" style="fill:#ff5252;"/><path d="M735,219.848c0,-11.159 -9.06,-20.218 -20.218,-20.218l-171.345,0c-11.159,0 -20.219,9.059 -20.219,20.218c0,11.159 9.06,20.219 20.219,20.219l171.345,0c11.158,0 20.218,-9.06 20.218,-20.219Z" style="fill:#ffcdd2;"/><path d="M735,277.197c0,-11.159 -9.06,-20.219 -20.218,-20.219l-205.564,0c-11.158,0 -20.218,9.06 -20.218,20.219c0,11.158 9.06,20.218 20.218,20.218l205.564,0c11.158,0 20.218,-9.06 20.218,-20.218Z" style="fill:#f44336;"/></svg>