<?xml version="1.0" encoding="UTF-8" standalone="no"?><!DOCTYPE svg PUBLIC "-//W3C//DTD SVG 1.1//EN" "http://www.w3.org/Graphics/SVG/1.1/DTD/svg11.dtd"><svg width="100%" height="100%" viewBox="0 0 750 325" version="1.1" xmlns="http://www.w3.org/2000/svg" xmlns:xlink="http://www.w3.org/1999/xlink" xml:space="preserve" xmlns:serif="http://www.serif.com/" style="fill-rule:evenodd;clip-rule:evenodd;stroke-linejoin:round;stroke-miterlimit:1.41421;"><g transform="matrix(0.788985,0,0,1,-16.2233,-2.69651)"><text x="29px" y="294px" style="font-family:'ArialRoundedMTBold', 'Arial Rounded MT Bold', sans-serif;font-size:359.877px;fill:#272727;">W</text><text x="357.923px" y="294px" style="font-family:'ArialRoundedMTBold', 'Arial Rounded MT Bold', sans-serif;font-size:359.877px;fill:#272727;">T</text><text x="555.855px" y="294px" style="font-family:'ArialRoundedMTBold', 'Arial Rounded MT Bold', sans-serif;font-size:359.877px;fill:#e82f2f;">F</text></g><path d="M735,54c0,-10.21 -8.29,-18.5 -18.5,-18.5l-107,0c-10.21,0 -18.5,8.29 -18.5,18.5c0,10.21 8.29,18.5 18.5,18.5l107,0c10.21,0 18.5,-8.29 18.5,-18.5Z" style="fill:#ebebeb;"/><path d="M735,162.5c0,-10.21 -8.29,-18.5 -18.5,-18.5l-107,0c-10.21,0 -18.5,8.29 -18.5,18.5c0,10.21 8.29,18.5 18.5,18.5l107,0c10.21,0 18.5,-8.29 18.5,-18.5Z" style="fill:#ff5252;"/><path d="M735,219.848c0,-10.21 -8.29,-18.5 -18.5,-18.5l-164,0c-10.21,0 -18.5,8.29 -18.5,18.5c0,10.211 8.29,18.5 18.5,18.5l164,0c10.21,0 18.5,-8.289 18.5,-18.5Z" style="fill:#ffcdd2;"/><path d="M735,277.197c0,-10.211 -8.29,-18.5 -18.5,-18.5l-195,0c-10.21,0 -18.5,8.289 -18.5,18.5c0,10.21 8.29,18.5 18.5,18.5l195,0c10.21,0 18.5,-8.29 18.5,-18.5Z" style="fill:#f44336;"/><path d="M735,54c0,-10.21 -8.29,-18.5 -18.5,-18.5l-107,0c-10.21,0 -18.5,8.29 -18.5,18.5c0,10.21 8.29,18.5 18.5,18.5l107,0c10.21,0 18.5,-8.29 18.5,-18.5Z" style="fill:#ff5252;"/><path d="M735,105.152c0,-10.211 -8.29,-18.5 -18.5,-18.5l-145.5,0c-10.21,0 -18.5,8.289 -18.5,18.5c0,10.21 8.29,18.5 18.5,18.5l145.5,0c10.21,0 18.5,-8.29 18.5,-18.5Z" style="fill:#ffcdd2;"/></svg>