<?xml version="1.0" encoding="UTF-8" standalone="no"?><!DOCTYPE svg PUBLIC "-//W3C//DTD SVG 1.1//EN" "http://www.w3.org/Graphics/SVG/1.1/DTD/svg11.dtd"><svg width="100%" height="100%" viewBox="0 0 750 325" version="1.1" xmlns="http://www.w3.org/2000/svg" xmlns:xlink="http://www.w3.org/1999/xlink" xml:space="preserve" xmlns:serif="http://www.serif.com/" style="fill-rule:evenodd;clip-rule:evenodd;stroke-linejoin:round;stroke-miterlimit:1.41421;"><g><path d="M172.75,250.712l-32.858,-154.459l-33.274,154.459c-2.588,11.715 -4.645,20.12 -6.17,25.216c-1.525,5.096 -4.182,9.665 -7.972,13.706c-3.789,4.042 -8.827,6.063 -15.112,6.063c-5.083,0 -9.266,-1.201 -12.547,-3.603c-3.281,-2.401 -5.938,-5.799 -7.972,-10.192c-2.033,-4.393 -3.697,-9.606 -4.991,-15.639c-1.294,-6.033 -2.449,-11.627 -3.466,-16.781l-33.828,-173.437c-2.034,-10.074 -3.05,-17.748 -3.05,-23.019c0,-6.678 1.848,-12.301 5.545,-16.869c3.697,-4.569 8.273,-6.854 13.726,-6.854c7.486,0 12.524,3.046 15.112,9.138c2.588,6.092 4.852,14.936 6.793,26.534l26.619,150.417l29.808,-140.752c2.218,-10.778 4.206,-18.978 5.962,-24.601c1.756,-5.624 4.621,-10.485 8.596,-14.585c3.974,-4.1 9.381,-6.151 16.221,-6.151c6.932,0 12.316,2.138 16.151,6.414c3.836,4.276 6.493,8.933 7.972,13.97c1.479,5.037 3.466,13.355 5.962,24.953l30.085,140.752l26.619,-150.417c1.294,-7.849 2.519,-13.999 3.674,-18.451c1.155,-4.451 3.143,-8.434 5.962,-11.949c2.819,-3.514 6.909,-5.272 12.269,-5.272c5.361,0 9.913,2.256 13.657,6.766c3.743,4.51 5.614,10.162 5.614,16.957c0,4.803 -1.016,12.476 -3.05,23.019l-33.828,173.437c-2.311,11.715 -4.229,20.296 -5.754,25.743c-1.525,5.447 -4.113,10.221 -7.764,14.321c-3.651,4.1 -8.803,6.151 -15.458,6.151c-6.285,0 -11.322,-1.992 -15.112,-5.975c-3.79,-3.983 -6.424,-8.464 -7.903,-13.443c-1.478,-4.978 -3.558,-13.501 -6.238,-25.567Z" style="fill:#272727;fill-rule:nonzero;"/><path d="M384.566,72.748l-44.92,0l0,187.143c0,10.778 -1.895,18.773 -5.684,23.986c-3.79,5.213 -8.689,7.82 -14.696,7.82c-6.101,0 -11.069,-2.636 -14.904,-7.908c-3.836,-5.272 -5.754,-13.238 -5.754,-23.898l0,-187.143l-44.92,0c-7.024,0 -12.246,-1.962 -15.666,-5.886c-3.42,-3.925 -5.13,-9.109 -5.13,-15.552c0,-6.677 1.779,-11.949 5.338,-15.815c3.558,-3.866 8.711,-5.798 15.458,-5.798l130.878,0c7.117,0 12.408,1.991 15.874,5.974c3.466,3.983 5.199,9.196 5.199,15.639c0,6.443 -1.756,11.627 -5.268,15.552c-3.512,3.924 -8.781,5.886 -15.805,5.886Z" style="fill:#272727;fill-rule:nonzero;"/><path d="M535.873,73.937l-81.105,0l0,65.895l67.796,0c6.285,0 10.976,1.786 14.072,5.359c3.096,3.573 4.644,8.347 4.644,14.322c0,5.974 -1.571,10.719 -4.713,14.233c-3.143,3.515 -7.811,5.272 -14.003,5.272l-67.796,0l0,84.873c0,10.778 -1.918,18.773 -5.753,23.986c-3.836,5.213 -8.758,7.82 -14.766,7.82c-6.1,0 -11.068,-2.636 -14.904,-7.908c-3.835,-5.272 -5.753,-13.238 -5.753,-23.898l0,-198.213c0,-7.498 0.878,-13.619 2.634,-18.363c1.756,-4.745 4.506,-8.2 8.249,-10.368c3.743,-2.167 8.526,-3.25 14.349,-3.25l97.049,0c6.563,0 11.438,1.845 14.627,5.535c3.189,3.69 4.783,8.522 4.783,14.497c0,6.091 -1.594,10.982 -4.783,14.672c-3.189,3.691 -8.064,5.536 -14.627,5.536Z" style="fill:#e82f2f;fill-rule:nonzero;"/></g><path d="M735,53.718c0,-11.158 -9.06,-20.218 -20.218,-20.218l-121.845,0c-11.159,0 -20.219,9.06 -20.219,20.218c0,11.159 9.06,20.219 20.219,20.219l121.845,0c11.158,0 20.218,-9.06 20.218,-20.219Z" style="fill:#ff5252;"/><path d="M735,105.152c0,-11.159 -9.06,-20.219 -20.218,-20.219l-160.564,0c-11.158,0 -20.218,9.06 -20.218,20.219c0,11.159 9.06,20.218 20.218,20.218l160.564,0c11.158,0 20.218,-9.059 20.218,-20.218Z" style="fill:#ffcdd2;"/><path d="M735,159.5c0,-11.159 -9.06,-20.218 -20.218,-20.218l-121.845,0c-11.159,0 -20.219,9.059 -20.219,20.218c0,11.159 9.06,20.218 20.219,20.218l121.845,0c11.158,0 20.218,-9.059 20.218,-20.218Z" style="fill:#ff5252;"/><path d="M735,219.848c0,-11.159 -9.06,-20.218 -20.218,-20.218l-171.345,0c-11.159,0 -20.219,9.059 -20.219,20.218c0,11.159 9.06,20.219 20.219,20.219l171.345,0c11.158,0 20.218,-9.06 20.218,-20.219Z" style="fill:#ffcdd2;"/><path d="M735,277.197c0,-11.159 -9.06,-20.219 -20.218,-20.219l-205.564,0c-11.158,0 -20.218,9.06 -20.218,20.219c0,11.158 9.06,20.218 20.218,20.218l205.564,0c11.158,0 20.218,-9.06 20.218,-20.218Z" style="fill:#f44336;"/></svg>